<svg xmlns="http://www.w3.org/2000/svg" viewBox="0 0 27 24" width="27" height="24">
  <!-- Self-authored pixel-cat favicon (see dashboard/app/ASSETS.md). Same 9x8 grid as
       entities/cat/ui.tsx's PixelCat, scaled 3px/cell, on a dark office-window backdrop. -->
  <rect width="27" height="24" fill="#0b0c10"/>
  <g fill="#facc15">
    <rect x="6" y="0" width="3" height="3"/>
    <rect x="18" y="0" width="3" height="3"/>
    <rect x="3" y="3" width="3" height="3"/>
    <rect x="6" y="3" width="3" height="3"/>
    <rect x="9" y="3" width="3" height="3"/>
    <rect x="15" y="3" width="3" height="3"/>
    <rect x="18" y="3" width="3" height="3"/>
    <rect x="21" y="3" width="3" height="3"/>
    <rect x="3" y="6" width="3" height="3"/>
    <rect x="6" y="6" width="3" height="3"/>
    <rect x="9" y="6" width="3" height="3"/>
    <rect x="12" y="6" width="3" height="3"/>
    <rect x="15" y="6" width="3" height="3"/>
    <rect x="18" y="6" width="3" height="3"/>
    <rect x="21" y="6" width="3" height="3"/>
    <rect x="0" y="9" width="3" height="3"/>
    <rect x="3" y="9" width="3" height="3"/>
    <rect x="6" y="9" width="3" height="3"/>
    <rect x="9" y="9" width="3" height="3"/>
    <rect x="12" y="9" width="3" height="3"/>
    <rect x="15" y="9" width="3" height="3"/>
    <rect x="18" y="9" width="3" height="3"/>
    <rect x="21" y="9" width="3" height="3"/>
    <rect x="24" y="9" width="3" height="3"/>
    <rect x="0" y="12" width="3" height="3"/>
    <rect x="3" y="12" width="3" height="3"/>
    <rect x="6" y="12" width="3" height="3"/>
    <rect x="15" y="12" width="3" height="3"/>
    <rect x="18" y="12" width="3" height="3"/>
    <rect x="21" y="12" width="3" height="3"/>
    <rect x="24" y="12" width="3" height="3"/>
    <rect x="3" y="18" width="3" height="3"/>
    <rect x="6" y="18" width="3" height="3"/>
    <rect x="9" y="18" width="3" height="3"/>
    <rect x="12" y="18" width="3" height="3"/>
    <rect x="15" y="18" width="3" height="3"/>
    <rect x="18" y="18" width="3" height="3"/>
    <rect x="21" y="18" width="3" height="3"/>
    <rect x="6" y="21" width="3" height="3"/>
    <rect x="18" y="21" width="3" height="3"/>
  </g>
  <g fill="#111114">
    <rect x="9" y="12" width="3" height="3"/>
    <rect x="18" y="12" width="0" height="0"/>
  </g>
</svg>
